<svg xmlns="http://www.w3.org/2000/svg" width="208.267" height="61.987" viewBox="0 0 208.267 61.987">
  <g id="default-monochrome-black" transform="translate(-0.712 -0.7)">
    <g id="_963b8484-1ac3-44ac-b23e-63f167c59778" data-name="963b8484-1ac3-44ac-b23e-63f167c59778" transform="translate(116.929 3)">
      <path id="Path_1" data-name="Path 1" d="M28.689,23.321a23.1,23.1,0,0,1,14.3,5.139c.69.506,1.134.463,1.578,0l2.071-1.98c.592-.506.789-.758.148-1.264a29.556,29.556,0,0,0-18.1-6.024c-13.56,0-24.556,9.647-24.556,21.4s11,21.4,24.556,21.4c6.8,0,14.053-2.359,18.589-6.193a2.508,2.508,0,0,0,1.085-2.106V40.635c0-.632-.2-.927-1.035-.927h-17.6c-.789,0-1.085.253-1.085.927V42.91c0,.674.3.885,1.085.885H42.94v9.521a23.01,23.01,0,0,1-14.25,4.55c-10.749,0-19.033-8.425-19.033-17.272C9.656,31.7,17.94,23.321,28.689,23.321Zm46.745.126A27.318,27.318,0,0,1,89.24,27.323c.69.463,1.134.253,1.529-.421L92.1,25.09c.247-.59.394-.969-.345-1.306-5.276-2.7-9.911-4.465-17.011-4.465-13.363,0-17.406,7.751-17.406,12.3,0,7.836,8.777,9.816,16.321,10.7,9.023,1.053,14.2,2.654,14.2,7.541,0,6.108-6.607,7.878-12.968,7.878a31.742,31.742,0,0,1-15.335-3.918c-.838-.421-1.085-.295-1.578.337l-1.331,1.9c-.394.632-.394.927.3,1.306,5.227,3.117,11.341,4.508,18.639,4.508,11.883,0,17.6-5.9,17.6-12.175,0-7.92-7.594-10.279-16.518-11.29-7.594-.8-14-2.064-14-6.909C62.663,28.46,64.931,23.447,75.434,23.447Z" transform="translate(-4.134 -19.193)" fill="#fff"/>
    </g>
    <g id="f18ea108-d2ef-45f8-9962-d14b3aee44c8" transform="translate(0.712 0.7)">
      <path id="Path_2" data-name="Path 2" d="M6.032,21.47l8.707-6.149L45.45,37.009l8.825,6.149L45.45,49.306,14.739,70.993,6.032,64.844,36.743,43.157Zm105.9,55.838V67.67H57.57v9.639Z" transform="translate(-6.032 -15.321)" fill="#fff"/>
    </g>
    <g id="_069a16e9-cbbb-4178-b787-0cec08df7391" data-name="069a16e9-cbbb-4178-b787-0cec08df7391" transform="translate(120.1 49.159)">
      <path id="Path_3" data-name="Path 3" d="M3.053,6.6v.346a.2.2,0,0,0,.029.1.061.061,0,0,0,.058.035h.923V9.386c-.111.112-.217.207-.319.294a1.873,1.873,0,0,1-.333.233,1.312,1.312,0,0,1-.377.13,2.39,2.39,0,0,1-.444.035,1.313,1.313,0,0,1-.812-.268,2.257,2.257,0,0,1-.633-.761A4.491,4.491,0,0,1,.739,7.83,8.682,8.682,0,0,1,.594,6.2a8.464,8.464,0,0,1,.145-1.6A4.636,4.636,0,0,1,1.144,3.4a2.367,2.367,0,0,1,.642-.761,1.4,1.4,0,0,1,.841-.268,2.05,2.05,0,0,1,1.353.415C4,3.568,4.014,4,4.014,4.087c0,.2.053.294.15.294h.159V2.444A2.673,2.673,0,0,0,3.507,2a2.554,2.554,0,0,0-.865-.164,1.694,1.694,0,0,0-1,.3,2.634,2.634,0,0,0-.758.882A4.988,4.988,0,0,0,.41,4.407,8.47,8.47,0,0,0,.241,6.2,8.669,8.669,0,0,0,.41,8.012,5.2,5.2,0,0,0,.884,9.386a2.559,2.559,0,0,0,.734.89,1.624,1.624,0,0,0,.942.311,2.739,2.739,0,0,0,.556-.061,3.719,3.719,0,0,0,.473-.182,2.064,2.064,0,0,0,.411-.3,3.993,3.993,0,0,0,.372-.4V6.6ZM10,4.363a1.047,1.047,0,0,0-.642.233,1.765,1.765,0,0,0-.473.614,3.959,3.959,0,0,0-.295.951,6.492,6.492,0,0,0-.111,1.193A7.656,7.656,0,0,0,8.6,8.72a4.1,4.1,0,0,0,.314,1.011,1.647,1.647,0,0,0,.483.622,1,1,0,0,0,.633.207A.944.944,0,0,0,10.4,10.5a1.5,1.5,0,0,0,.353-.182,1.183,1.183,0,0,0,.295-.268,1.289,1.289,0,0,0,.217-.337l-.087-.19c-.014-.035-.039-.061-.068-.061s-.063.026-.106.1a1.777,1.777,0,0,1-.2.233,2.206,2.206,0,0,1-.314.216.88.88,0,0,1-.44.1.808.808,0,0,1-.512-.182,1.338,1.338,0,0,1-.391-.519A3.205,3.205,0,0,1,8.9,8.556a6.822,6.822,0,0,1-.087-1.2v-.1h2.425A.069.069,0,0,0,11.3,7.2a.486.486,0,0,0,.029-.182,5.587,5.587,0,0,0-.1-1.124,2.877,2.877,0,0,0-.28-.839,1.494,1.494,0,0,0-.415-.51A.871.871,0,0,0,10,4.363Zm.01.441a.644.644,0,0,1,.42.147,1.081,1.081,0,0,1,.324.406,2.6,2.6,0,0,1,.208.64,4.72,4.72,0,0,1,.077.873H8.82a5.3,5.3,0,0,1,.126-.856,2.418,2.418,0,0,1,.242-.657,1.2,1.2,0,0,1,.357-.406A.739.739,0,0,1,10.014,4.8Zm6.753-.441a1.039,1.039,0,0,0-.647.233,1.853,1.853,0,0,0-.488.614,3.547,3.547,0,0,0-.295.986,7.42,7.42,0,0,0-.111,1.279,7.09,7.09,0,0,0,.111,1.271,3.64,3.64,0,0,0,.295.986,1.853,1.853,0,0,0,.488.614,1.023,1.023,0,0,0,.647.216,1,1,0,0,0,.642-.216,1.73,1.73,0,0,0,.483-.614,4,4,0,0,0,.3-.986,7.149,7.149,0,0,0,.1-1.271A7.464,7.464,0,0,0,18.2,6.2a3.89,3.89,0,0,0-.3-.986,1.73,1.73,0,0,0-.483-.614A1.016,1.016,0,0,0,16.767,4.363Zm0,5.749a.809.809,0,0,1-.527-.182,1.418,1.418,0,0,1-.377-.527,3.527,3.527,0,0,1-.222-.839,6.337,6.337,0,0,1-.077-1.089,6.337,6.337,0,0,1,.077-1.089,3.342,3.342,0,0,1,.222-.83,1.422,1.422,0,0,1,.377-.545.809.809,0,0,1,.527-.182.8.8,0,0,1,.522.182,1.429,1.429,0,0,1,.382.545,3.145,3.145,0,0,1,.222.83,7.52,7.52,0,0,1,.072,1.089,7.52,7.52,0,0,1-.072,1.089,3.312,3.312,0,0,1-.222.839,1.426,1.426,0,0,1-.382.527A.8.8,0,0,1,16.767,10.112Zm7.69-5.688a.725.725,0,0,0-.275-.061.8.8,0,0,0-.671.415,3.454,3.454,0,0,0-.43,1.15l-.029-1.271a.323.323,0,0,0-.029-.147c-.01-.026-.039-.035-.077-.035h-.657v.233c0,.156.048.2.126.216.043,0,.082,0,.362.026v5.057c-.28.026-.319.026-.362.026-.077.009-.126.061-.126.216v.242h1.29v-.242c0-.156-.048-.207-.126-.216-.043,0-.082,0-.362-.026V6.585a3.923,3.923,0,0,1,.4-1.228.731.731,0,0,1,.628-.424,1.081,1.081,0,0,1,.184.026.328.328,0,0,1,.14.052.5.5,0,0,1,.092.061.217.217,0,0,0,.058.017c.043,0,.063-.035.068-.1l.043-.4A1.132,1.132,0,0,0,24.457,4.424Zm5.42-.061a.909.909,0,0,0-.5.147A1.207,1.207,0,0,0,29,4.9a1.9,1.9,0,0,0-.242.605,3.424,3.424,0,0,0-.092.8,3.2,3.2,0,0,0,.135.96,1.783,1.783,0,0,0,.372.666A.935.935,0,0,0,29,8.141a1.126,1.126,0,0,0-.13.259,1.972,1.972,0,0,0-.077.277,1.052,1.052,0,0,0-.029.268,1.146,1.146,0,0,0,.1.527.709.709,0,0,0,.271.294,1.306,1.306,0,0,0-.488.527,1.846,1.846,0,0,0-.179.83,2.014,2.014,0,0,0,.1.622,1.485,1.485,0,0,0,.271.51,1.354,1.354,0,0,0,.444.354,1.415,1.415,0,0,0,.623.13,1.319,1.319,0,0,0,.638-.164,1.563,1.563,0,0,0,.473-.424,1.93,1.93,0,0,0,.3-.622,2.433,2.433,0,0,0,.1-.709,1.819,1.819,0,0,0-.1-.657.883.883,0,0,0-.271-.372.81.81,0,0,0-.386-.2,2.334,2.334,0,0,0-.43-.069l-.44-.052a1.256,1.256,0,0,1-.382-.069.681.681,0,0,1-.271-.207.689.689,0,0,1-.1-.4,1.058,1.058,0,0,1,.082-.389,1.069,1.069,0,0,1,.222-.337.939.939,0,0,0,.531.147.865.865,0,0,0,.483-.138,1.22,1.22,0,0,0,.382-.389,1.926,1.926,0,0,0,.242-.605A3.073,3.073,0,0,0,31.07,6.3a3.553,3.553,0,0,0-.043-.614,2.965,2.965,0,0,0-.15-.519l.512-.078c.063-.009.1-.061.1-.156V4.727h-.865a1.022,1.022,0,0,0-.338-.259A.934.934,0,0,0,29.877,4.363ZM31.128,10.9a1.61,1.61,0,0,1-.1.562,1.566,1.566,0,0,1-.256.458,1.37,1.37,0,0,1-.386.294,1.12,1.12,0,0,1-.478.1,1.226,1.226,0,0,1-.488-.1,1.1,1.1,0,0,1-.367-.268,1.329,1.329,0,0,1-.222-.389,1.444,1.444,0,0,1-.072-.493,1.9,1.9,0,0,1,.043-.389,1.141,1.141,0,0,1,.126-.329,1.352,1.352,0,0,1,.179-.268,2.7,2.7,0,0,1,.246-.207,1.645,1.645,0,0,0,.372.078c.135.009.256.026.391.035a2.526,2.526,0,0,1,.377.052.838.838,0,0,1,.328.138.586.586,0,0,1,.213.268A1.038,1.038,0,0,1,31.128,10.9ZM29.877,7.83a.652.652,0,0,1-.382-.112.925.925,0,0,1-.29-.311,1.543,1.543,0,0,1-.174-.475,2.666,2.666,0,0,1-.063-.614,2.823,2.823,0,0,1,.063-.631,1.464,1.464,0,0,1,.174-.475A.925.925,0,0,1,29.5,4.9a.722.722,0,0,1,.382-.112.693.693,0,0,1,.377.112,1.02,1.02,0,0,1,.285.311,1.588,1.588,0,0,1,.184.475,3.04,3.04,0,0,1,.058.614,3.1,3.1,0,0,1-.058.631,1.841,1.841,0,0,1-.179.475.827.827,0,0,1-.285.311A.652.652,0,0,1,29.877,7.83Zm7.038-3.467a1.036,1.036,0,0,0-.642.233,1.765,1.765,0,0,0-.473.614,3.751,3.751,0,0,0-.3.951,6.509,6.509,0,0,0-.106,1.193A7.232,7.232,0,0,0,35.51,8.72a3.907,3.907,0,0,0,.309,1.011,1.655,1.655,0,0,0,.488.622.99.99,0,0,0,.628.207.967.967,0,0,0,.382-.061,1.38,1.38,0,0,0,.348-.182,1.123,1.123,0,0,0,.3-.268,1.426,1.426,0,0,0,.217-.337l-.087-.19a.09.09,0,0,0-.068-.061c-.024,0-.063.026-.111.1a1.776,1.776,0,0,1-.2.233,2.138,2.138,0,0,1-.309.216.88.88,0,0,1-.44.1.831.831,0,0,1-.517-.182,1.386,1.386,0,0,1-.391-.519,3.6,3.6,0,0,1-.251-.856,7.318,7.318,0,0,1-.087-1.2v-.1h2.43a.069.069,0,0,0,.068-.052.51.51,0,0,0,.024-.182,5.587,5.587,0,0,0-.1-1.124,3.034,3.034,0,0,0-.275-.839,1.5,1.5,0,0,0-.42-.51A.858.858,0,0,0,36.915,4.363Zm0,.441a.626.626,0,0,1,.42.147,1.037,1.037,0,0,1,.324.406,2.406,2.406,0,0,1,.213.64,4.746,4.746,0,0,1,.072.873H35.732a5.326,5.326,0,0,1,.121-.856,2.586,2.586,0,0,1,.246-.657,1.2,1.2,0,0,1,.357-.406A.734.734,0,0,1,36.92,4.8ZM50,7.112a2.043,2.043,0,0,0-.28-.605,2.124,2.124,0,0,0-.377-.4,3.949,3.949,0,0,0-.449-.294c-.145-.078-.295-.182-.44-.259a1.969,1.969,0,0,1-.382-.346,1.362,1.362,0,0,1-.271-.484A2.176,2.176,0,0,1,47.688,4a2.628,2.628,0,0,1,.077-.622,1.732,1.732,0,0,1,.2-.536.987.987,0,0,1,.328-.363.826.826,0,0,1,.459-.13,1.42,1.42,0,0,1,.894.3c.019.683.034,1.072.034,1.132.01.2.048.3.145.3h.159V2.332a2.025,2.025,0,0,0-1.232-.493,1.026,1.026,0,0,0-.594.182,1.358,1.358,0,0,0-.43.484,2.486,2.486,0,0,0-.271.7,3.646,3.646,0,0,0-.092.839,3.5,3.5,0,0,0,.1.916,2.043,2.043,0,0,0,.28.605,1.546,1.546,0,0,0,.377.4,3.95,3.95,0,0,0,.449.294c.145.086.29.164.44.251a1.685,1.685,0,0,1,.382.337,1.531,1.531,0,0,1,.271.484,2.368,2.368,0,0,1,.1.752,3.709,3.709,0,0,1-.077.787,2.449,2.449,0,0,1-.232.631,1.205,1.205,0,0,1-.377.424.805.805,0,0,1-.507.147,1.435,1.435,0,0,1-.956-.329c0-.173,0-.354-.014-.545s0-.354-.01-.484-.01-.207-.01-.216c0-.2-.053-.294-.15-.294h-.159v1.91a2.052,2.052,0,0,0,1.285.475,1.069,1.069,0,0,0,.647-.207,1.711,1.711,0,0,0,.483-.553,3.15,3.15,0,0,0,.3-.821,4.9,4.9,0,0,0,.1-1.02A3.16,3.16,0,0,0,50,7.112Zm7.169,2.922H57.02c-.034,0-.072-.017-.116-.017L55.586,7.45c-.024-.043-.043-.1-.072-.138a.492.492,0,0,0-.1-.112.355.355,0,0,0,.068-.1c.024-.035.048-.078.068-.112l1.208-2.04c.039,0,.072-.017.106-.017s.063-.009.087-.009H57c.087-.017.13-.086.13-.216V4.467H56.088v.242c0,.13.048.2.135.216,0,0,.063,0,.169.009L55.228,6.922a.227.227,0,0,1-.092.1.172.172,0,0,1-.092.026H54.89V1.692h-.812v.233c0,.13.048.2.135.216h.034c.014,0,.034.009.053.009h.1c.048,0,.1.017.164.017v7.841c-.072,0-.14.026-.2.026h-.155c-.087.009-.135.078-.135.216v.242h1.3v-.242c0-.138-.048-.207-.135-.216h-.087a.694.694,0,0,0-.1-.017c-.048,0-.1-.009-.164-.009V7.45h.15a.239.239,0,0,1,.15.043.382.382,0,0,1,.106.156l1.415,2.7a.421.421,0,0,0,.072.112.152.152,0,0,0,.082.035H57.3v-.242C57.3,10.112,57.252,10.043,57.165,10.034Zm5.376-5.671a1.042,1.042,0,0,0-.652.233,1.853,1.853,0,0,0-.488.614,3.547,3.547,0,0,0-.295.986A7.419,7.419,0,0,0,61,7.476a7.09,7.09,0,0,0,.111,1.271,3.64,3.64,0,0,0,.295.986,1.853,1.853,0,0,0,.488.614,1.077,1.077,0,0,0,1.295,0,1.775,1.775,0,0,0,.478-.614,3.808,3.808,0,0,0,.3-.986,7.15,7.15,0,0,0,.1-1.271,7.464,7.464,0,0,0-.1-1.279,3.7,3.7,0,0,0-.3-.986,1.775,1.775,0,0,0-.478-.614A1.036,1.036,0,0,0,62.542,4.363Zm0,5.749a.823.823,0,0,1-.531-.182,1.474,1.474,0,0,1-.377-.527,3.527,3.527,0,0,1-.222-.839,6.863,6.863,0,0,1-.077-1.089,6.863,6.863,0,0,1,.077-1.089,3.342,3.342,0,0,1,.222-.83,1.477,1.477,0,0,1,.377-.545.823.823,0,0,1,.531-.182.775.775,0,0,1,.517.182,1.429,1.429,0,0,1,.382.545,3.144,3.144,0,0,1,.222.83,7.519,7.519,0,0,1,.072,1.089,7.519,7.519,0,0,1-.072,1.089,3.311,3.311,0,0,1-.222.839,1.426,1.426,0,0,1-.382.527A.775.775,0,0,1,62.542,10.112Zm7.686-5.688a.725.725,0,0,0-.275-.061.8.8,0,0,0-.671.415,3.563,3.563,0,0,0-.43,1.15l-.029-1.271A.432.432,0,0,0,68.8,4.51a.085.085,0,0,0-.082-.035h-.657v.233c0,.156.048.2.13.216.039,0,.077,0,.357.026v5.057c-.28.026-.319.026-.357.026-.082.009-.13.061-.13.216v.242h1.29v-.242c0-.156-.043-.207-.126-.216-.043,0-.082,0-.357-.026V6.585a4.067,4.067,0,0,1,.4-1.228.731.731,0,0,1,.628-.424,1.081,1.081,0,0,1,.184.026.35.35,0,0,1,.145.052.676.676,0,0,1,.087.061.283.283,0,0,0,.058.017c.043,0,.063-.035.068-.1l.043-.4A1.027,1.027,0,0,0,70.227,4.424Zm7.333,5.827c0-.138-.039-.207-.13-.216h-.077c-.024,0-.058-.017-.1-.017h-.15V1.684h-.8v.242c0,.13.043.2.135.216h.034a.339.339,0,0,0,.043.009h.111c.048,0,.1.017.159.017V5.254a1.708,1.708,0,0,0-.43-.657.849.849,0,0,0-.594-.233.962.962,0,0,0-.633.242,2.116,2.116,0,0,0-.459.666,4.486,4.486,0,0,0-.285.994,7.025,7.025,0,0,0-.092,1.228A5.95,5.95,0,0,0,74.638,9.8a1.072,1.072,0,0,0,.966.761.892.892,0,0,0,.676-.311,2.858,2.858,0,0,0,.522-.873l.034.96c.01.1.043.156.1.156h.628v-.182Zm-.773-1.323a2.978,2.978,0,0,1-.483.864.825.825,0,0,1-.6.311.873.873,0,0,1-.8-.631,5.3,5.3,0,0,1-.28-1.98A6.676,6.676,0,0,1,74.7,6.412a3.6,3.6,0,0,1,.227-.847,1.587,1.587,0,0,1,.372-.553.745.745,0,0,1,.522-.2.8.8,0,0,1,.536.216,1.938,1.938,0,0,1,.43.726Zm5.2-6.155a.345.345,0,0,0,.092.1.156.156,0,0,0,.232,0,.345.345,0,0,0,.092-.1.547.547,0,0,0,.068-.173.874.874,0,0,0,.029-.207,1.112,1.112,0,0,0-.029-.207.434.434,0,0,0-.068-.164.332.332,0,0,0-.092-.121.212.212,0,0,0-.232,0,.332.332,0,0,0-.092.121.526.526,0,0,0-.063.164.943.943,0,0,0-.029.207.874.874,0,0,0,.029.207A.684.684,0,0,0,81.985,2.773Zm.72,7.262h-.087a.694.694,0,0,0-.1-.017c-.048,0-.1-.009-.159-.009V4.467h-.812v.242c0,.13.043.2.135.216h.034c.01,0,.034.009.053.009h.1c.048,0,.1.017.159.017v5.057c-.072,0-.14.026-.193.026h-.155c-.092.009-.135.078-.135.216v.242H82.84v-.242C82.84,10.112,82.8,10.043,82.7,10.034Zm6.323-1.928a1.4,1.4,0,0,0-.208-.424,1.237,1.237,0,0,0-.3-.294c-.106-.069-.227-.156-.343-.216s-.232-.13-.343-.19a1.368,1.368,0,0,1-.3-.233,1,1,0,0,1-.208-.311,1.1,1.1,0,0,1-.082-.475A1.528,1.528,0,0,1,87.3,5.53a1.4,1.4,0,0,1,.169-.38.768.768,0,0,1,.256-.242.643.643,0,0,1,.333-.1,1.057,1.057,0,0,1,.531.156c.01.147.014.294.024.424s0,.233.01.3a1.239,1.239,0,0,1,.01.147c0,.2.053.294.15.294h.159V4.692a1.765,1.765,0,0,0-.894-.311.838.838,0,0,0-.459.13,1.2,1.2,0,0,0-.353.354,2.028,2.028,0,0,0-.222.519A2.29,2.29,0,0,0,86.941,6a1.929,1.929,0,0,0,.082.631,1.4,1.4,0,0,0,.208.424,1.157,1.157,0,0,0,.3.294,3.594,3.594,0,0,0,.343.207c.116.061.232.13.343.19a1.183,1.183,0,0,1,.3.242,1.146,1.146,0,0,1,.217.337,1.354,1.354,0,0,1,.082.5,2.634,2.634,0,0,1-.058.519,1.343,1.343,0,0,1-.169.424.82.82,0,0,1-.271.285.6.6,0,0,1-.372.112,1.078,1.078,0,0,1-.652-.19c-.01-.164-.014-.3-.024-.441s0-.242-.01-.311a1.24,1.24,0,0,1-.01-.147c0-.19-.053-.294-.15-.294h-.159v1.47a1.794,1.794,0,0,0,1,.337.9.9,0,0,0,.5-.147,1.133,1.133,0,0,0,.372-.4,2.033,2.033,0,0,0,.232-.579,3.3,3.3,0,0,0,.082-.743A1.9,1.9,0,0,0,89.028,8.107Z" transform="translate(-0.241 -1.684)" fill="#fff"/>
    </g>
  </g>
</svg>
